<?xml version="1.0" standalone="no"?>
<!DOCTYPE svg PUBLIC "-//W3C//DTD SVG 20010904//EN"
 "http://www.w3.org/TR/2001/REC-SVG-20010904/DTD/svg10.dtd">
<svg version="1.0" xmlns="http://www.w3.org/2000/svg"
 width="823.000000pt" height="823.000000pt" viewBox="0 0 823.000000 823.000000"
 preserveAspectRatio="xMidYMid meet">

<g transform="translate(0.000000,823.000000) scale(0.100000,-0.100000)"
fill="#000000" stroke="none">
<path d="M3765 7869 c-723 -59 -1413 -324 -1988 -762 -613 -467 -1063 -1100
-1306 -1838 -78 -235 -136 -508 -166 -784 -20 -179 -23 -554 -6 -730 62 -634
259 -1200 598 -1723 362 -559 882 -1023 1482 -1323 1065 -531 2319 -531 3385
2 235 118 465 265 681 437 142 113 416 384 538 531 482 582 770 1271 852 2039
21 195 21 569 0 765 -104 980 -564 1853 -1315 2498 -592 508 -1354 823 -2153
888 -145 12 -453 12 -602 0z m-191 -549 c98 -25 170 -66 230 -130 56 -59 83
-118 96 -208 16 -111 38 -1783 32 -2474 l-2 -228 -328 0 c-181 0 -403 3 -493
7 l-164 6 -3 471 c-3 641 -21 1008 -53 1087 -21 52 -129 76 -204 45 -47 -20
-121 -77 -164 -128 -54 -63 -238 -315 -345 -473 -111 -165 -271 -474 -337
-655 -40 -108 -73 -222 -94 -322 -5 -27 -8 -28 -68 -29 -34 0 -73 -2 -87 -4
-66 -8 -775 -17 -833 -11 l-67 8 0 76 c0 223 63 512 172 789 57 146 225 482
340 680 116 202 220 335 413 529 442 444 1023 806 1540 959 109 32 304 35 419
5z m1556 -10 c246 -52 498 -158 725 -308 127 -83 426 -307 535 -400 127 -108
220 -221 240 -292 l10 -33 -449 6 c-445 6 -745 -3 -766 -24 -13 -13 -19 -181
-10 -265 l6 -62 92 -7 c51 -4 382 -2 737 3 355 5 659 7 675 5 36 -6 83 -62
203 -243 130 -195 284 -515 268 -557 -6 -14 -79 -15 -844 -10 -460 4 -900 3
-977 -1 l-140 -7 -6 -360 c-4 -198 -7 -377 -8 -397 l-1 -38 -520 0 c-286 0
-520 1 -520 3 -1 1 -5 305 -9 675 -5 370 -5 976 -1 1347 l8 674 28 51 c66 122
234 224 434 264 48 9 186 -2 290 -24z m-2325 -3400 c479 -34 794 -127 960
-281 90 -85 111 -130 145 -321 28 -154 30 -177 30 -433 0 -148 5 -553 12 -900
11 -588 5 -1101 -13 -1119 -7 -8 -361 44 -504 74 -202 41 -470 130 -486 160
-4 8 -15 206 -23 440 -9 234 -18 455 -21 492 -4 78 -34 153 -63 162 -11 4
-166 2 -344 -4 -177 -5 -393 -10 -478 -10 -85 0 -161 -4 -168 -9 -28 -18 -42
-102 -42 -259 l0 -154 -62 53 c-107 91 -289 279 -375 387 -250 311 -403 624
-498 1015 -31 128 -31 160 0 254 42 125 124 232 219 288 117 68 515 144 856
164 201 12 695 12 855 1z m4022 -34 l332 -4 63 -29 c83 -39 166 -117 209 -195
33 -60 34 -67 34 -168 l0 -105 -56 -125 c-31 -69 -60 -136 -64 -149 -4 -13
-19 -34 -34 -47 l-26 -23 -391 -1 -391 0 5 48 c12 125 -82 187 -321 212 -142
14 -536 -11 -615 -40 -96 -36 -122 -67 -122 -149 0 -72 29 -131 82 -167 l41
-29 466 0 c493 0 575 -5 756 -49 108 -26 154 -54 187 -111 21 -36 23 -52 22
-165 -1 -139 -2 -142 -78 -265 -170 -275 -465 -597 -726 -792 -411 -307 -864
-507 -1389 -612 -151 -30 -418 -67 -426 -59 -6 6 14 848 20 866 3 9 38 12 127
12 196 1 456 17 543 35 112 23 264 76 331 116 93 55 194 165 194 210 0 8 -20
30 -45 48 l-44 32 -333 -2 c-315 -2 -337 -1 -412 19 -143 40 -233 110 -290
225 -32 66 -38 92 -68 312 -28 201 -33 270 -33 425 0 208 11 265 70 385 47 95
101 154 198 218 102 68 140 82 297 111 125 23 127 23 840 20 393 -2 864 -6
1047 -8z"/>
<path d="M2305 3240 c-207 -21 -361 -66 -408 -118 -40 -44 -58 -146 -41 -232
l7 -32 431 6 c237 3 472 9 523 12 l92 6 11 55 c16 73 5 142 -31 198 -33 51
-80 78 -171 95 -76 15 -308 20 -413 10z"/>
</g>
</svg>
